<svg width="393" height="245" viewBox="0 0 393 245" fill="none" xmlns="http://www.w3.org/2000/svg">
<path d="M385.53 0.910104C384.186 -0.632277 382.173 -3.18187 379.358 -3.94276C374.739 -5.19115 369.821 -3.10105 365.674 -2.00754C357.998 0.0159061 349.342 1.31293 342.055 -1.93155C333.644 -5.67641 331.135 -12.7582 322.751 -16.6102C312.276 -21.4235 298.662 -22.3145 287.019 -25.5522C277.148 -28.2969 268.996 -32.8461 259.114 -35.626C241.531 -40.5716 214.007 -42.955 194.728 -41.8596C177.665 -40.8897 160.427 -38.2152 144.247 -34.7859C134.373 -32.6935 125.331 -29.5575 114.944 -28.4228C90.1861 -25.7187 60.9101 -34.5988 40.2241 -22.7141C22.5053 -12.5347 21.787 4.04188 30.6909 17.051C35.8835 24.6367 48.3058 31.8527 40.669 40.3735C34.4293 47.3354 20.6446 49.534 9.70624 52.5946C-10.2505 58.1785 -27.5142 67.8404 -25.6811 82.653" stroke="white" stroke-width="12" stroke-miterlimit="1.5" stroke-linecap="round" stroke-linejoin="round"/>
<path d="M80.5752 58.0667C78.9401 55.058 76.409 51.6419 76.6521 48.4412C77.2774 40.197 91.5037 34.4297 103.716 32.2813C109.135 31.3279 126.624 28.607 131.824 30.4243C136.496 32.0565 138.466 35.6195 139.996 38.4805C140.848 40.0727 142.601 42.3325 142.042 44.0243C141.269 46.3662 136.042 46.6779 132.832 47.188C125.82 48.3024 119.46 50.4434 114.036 53.2529C107.301 56.7414 102.517 61.356 100.326 66.4455C98.7516 70.1037 99.3401 75.6029 92.585 77.644C87.3045 79.2395 79.0473 75.7613 74.7128 74.3397C64.1957 70.8907 52.1435 67.6768 39.8125 68.6441C28.2961 69.548 19.8866 72.245 12.6904 77.5136C9.31556 79.985 7.17111 83.9784 10.503 86.8371C14.0984 89.9212 21.0625 89.607 26.5328 88.82C33.834 87.7693 42.6423 86.5837 50.1553 87.4998C69.2738 89.8308 86.205 104.795 107.22 100.73C118.944 98.4617 121.787 87.5195 128.239 82.0883C140.511 71.7569 162.925 68.9362 183.185 70.401" stroke="white" stroke-width="12" stroke-miterlimit="1.5" stroke-linecap="round" stroke-linejoin="round"/>
<path d="M415.45 49.129C407.792 41.9652 404.75 30.8439 393.093 25.5609C372.753 16.3436 337.709 28.0393 336.221 42.038C335.109 52.4955 341.685 61.5898 347.001 71.2752C349.328 75.5163 352.732 82.9922 349.004 87.2973C343.723 93.3989 333.956 94.3301 324.375 97.2178C313.918 100.37 304.54 104.754 294.164 108.058C273.624 114.597 249.617 120.182 227.393 112.861C213.8 108.382 203.701 100.854 190.717 95.7949C179.533 91.4376 160.266 88.1883 152.158 96.7841C140.463 109.184 166.532 111.247 177.36 115.794C187.386 120.004 193.411 126.494 202.788 131.069C213.129 136.113 247.117 138.614 230.955 151.653C227.343 154.568 223.106 156.978 219.789 160.073C215.674 163.91 210.826 168.172 203.821 170.375C193.931 173.484 190.152 169.951 187.772 164.222C182.606 151.786 185.951 139.362 164.432 131.56C145.309 124.628 123.715 128.098 103.125 125.529C85.4442 123.322 72.2502 115.988 55.3284 113.06" stroke="white" stroke-width="12" stroke-miterlimit="1.5" stroke-linecap="round" stroke-linejoin="round"/>
<path d="M416.599 50.2354C418.069 51.4013 419.779 52.5454 421.718 53.4535C434.3 59.3515 444.067 49.054 448.151 43.7194C449.062 42.5299 449.8 41.2774 450.553 40.0505C451.549 38.428 452.745 36.836 454.127 35.3142C456.056 33.1919 458.223 30.9795 460.946 29.1666C468.441 24.1775 480.339 22.9836 488.017 28.4437C491.834 31.1595 493.803 34.7881 494.694 38.2219C496.531 45.3188 493.99 55.096 485.025 60.3777C479.794 63.4615 472.705 65.1115 466.446 67.3297C458.274 70.2271 450.783 73.7069 444.428 77.8981C439.88 80.8975 435.939 84.3629 433.223 88.0488C429.884 92.5806 427.735 97.3443 422.102 101.147C412.237 107.804 393.033 112.72 396.936 123.242C399.8 130.965 421.356 128.495 429.749 126.388C432.16 125.783 434.505 125.063 436.646 124.171C454.472 116.748 452.119 101.241 463.906 91.1977C468.76 87.0622 479.783 81.7009 487.489 86.86C504.335 98.1426 482.638 111.935 476.093 122.471C471.825 129.348 474.432 138.268 462.421 142.669C460.016 143.551 457.414 144.222 454.71 144.718C445.624 146.385 436.017 146.679 426.976 144.762C419.215 143.117 412.003 139.539 403.268 139.962" stroke="white" stroke-width="12" stroke-miterlimit="1.5" stroke-linecap="round" stroke-linejoin="round"/>
<path d="M375.679 43.4335C371.06 57.1806 389.772 65.4341 390.091 78.4635C390.477 94.2328 361.469 113.707 346.425 125.962" stroke="white" stroke-width="12" stroke-miterlimit="1.5" stroke-linecap="round" stroke-linejoin="round"/>
<path d="M325.442 115.83C312.786 125.447 301.125 122.579 286.062 130.401C278.736 134.205 265.78 141.383 267.94 147.628C269.943 153.421 281.956 159.589 290.132 158.753C306.952 157.032 334.295 140.49 349.846 145.971C360.591 149.758 366.77 156.527 377.594 160.162C388.89 163.955 400.893 162.156 412.807 164.286C422.72 166.058 429.78 170.627 439.343 172.667C454.332 175.865 475.07 171.581 485.905 179.633C497.295 188.098 494.138 197.515 495.849 207.44C497.053 214.421 501.206 220.858 504.44 227.553" stroke="white" stroke-width="12" stroke-miterlimit="1.5" stroke-linecap="round" stroke-linejoin="round"/>
<path d="M373.027 210.147C400.361 219.29 419.422 226.434 452.191 225.039C471.511 224.217 475.037 206.821 461.189 200.431C451.278 195.859 436.145 197.089 424.4 197.06C407.958 197.019 389.85 195.607 374.78 191.561C360.322 187.679 350.565 179.899 337.544 174.784C334.076 173.422 326.268 170.372 323.14 173.026C311.669 182.758 329.72 193.789 336.978 202.158C343.094 209.211 345.592 217.72 347.559 225.492" stroke="white" stroke-width="12" stroke-miterlimit="1.5" stroke-linecap="round" stroke-linejoin="round"/>
<path d="M124.94 177.995C134.026 170.792 144.772 170.833 154.738 177.731C166.804 186.081 169.667 198.326 191.736 198.996C224.669 199.994 228.94 174.455 257.38 166.792" stroke="white" stroke-width="12" stroke-miterlimit="1.5" stroke-linecap="round" stroke-linejoin="round"/>
<path d="M156.84 205.288C167.589 215.396 187.268 222.795 208.211 219.517C225.124 216.869 242.107 208.367 253.994 201.128C261.007 196.857 273.8 182.624 285.899 184.869C294.717 186.505 299.438 192.278 301.089 197.223C304.557 207.609 297.91 218.014 307.045 227.843" stroke="white" stroke-width="12" stroke-miterlimit="1.5" stroke-linecap="round" stroke-linejoin="round"/>
<path d="M278.893 208.03C278.893 215.889 267.899 222.901 276.982 248.491" stroke="white" stroke-width="12" stroke-miterlimit="1.5" stroke-linecap="round" stroke-linejoin="round"/>
<path d="M254.902 225.781C236.905 237.842 198.116 252.879 175.224 239.827C135.195 217.004 134.528 253.266 133.215 264.261" stroke="white" stroke-width="12" stroke-miterlimit="1.5" stroke-linecap="round" stroke-linejoin="round"/>
<path d="M254.902 225.781C236.905 237.842 198.116 252.879 175.224 239.827C135.195 217.004 134.528 253.266 133.215 264.261" stroke="white" stroke-width="12" stroke-miterlimit="1.5" stroke-linecap="round" stroke-linejoin="round"/>
<path d="M137.326 203.337C125.91 208.285 116.091 213.95 109.726 222.008C102.92 230.624 101.444 240.183 87.7327 245.631C68.4112 253.308 52.0558 243.731 32.4692 243.378C0.629704 240.871 -16.1249 265.994 -91.4236 243.808" stroke="white" stroke-width="12" stroke-miterlimit="1.5" stroke-linecap="round" stroke-linejoin="round"/>
<path d="M-13.4585 228.13C-21.9362 204.002 9.57661 199.398 57.6455 224.126" stroke="white" stroke-width="12" stroke-miterlimit="1.5" stroke-linecap="round" stroke-linejoin="round"/>
<path d="M3.91357 119.451C0.897926 124.574 -1.99013 129.936 -3.10938 135.326" stroke="white" stroke-width="12" stroke-miterlimit="1.5" stroke-linecap="round" stroke-linejoin="round"/>
<path d="M315.185 258.951C336.628 264.322 390.093 223.496 495.084 252.55" stroke="white" stroke-width="12" stroke-miterlimit="1.5" stroke-linecap="round" stroke-linejoin="round"/>
<path d="M-25.8889 -28.8346C-29.3981 -28.4962 -33.7111 -28.1787 -36.7151 -26.9284C-42.0691 -24.7008 -42.7909 -20.4861 -42.2947 -16.8929C-41.2469 -9.31303 -36.1219 -2.10861 -34.4473 5.42684C-32.7399 13.1101 -34.2395 20.462 -33.9161 28.1269C-33.6776 33.7851 -31.2299 40.8945 -19.325 40.161C4.99163 38.6624 0.607034 21.3662 -3.22922 11.8095C-4.13287 9.55875 -4.86382 7.30636 -5.34727 5.00792C-5.98692 1.96309 -6.56992 -1.16965 -6.35322 -4.24057C-5.93907 -10.0913 -4.04652 -15.9572 -1.56877 -21.6157C0.440931 -26.2055 2.88293 -30.9009 7.51393 -34.8219C20.6606 -45.9524 48.7403 -48.6894 69.8674 -46.7167C79.5925 -45.8088 88.7638 -43.6985 98.0995 -41.9278" stroke="white" stroke-width="12" stroke-miterlimit="1.5" stroke-linecap="round" stroke-linejoin="round"/>
<path d="M305.464 67.2737C312.97 90.6967 254.258 107.114 227.231 90.4484C210.051 79.8549 207.499 64.113 216.747 50.9561C221.142 44.7031 240.321 33.4354 230.147 27.3267C225.974 24.8212 218.559 25.784 213.517 26.5327C199.422 28.6257 161.718 43.5066 161.523 24.8592C161.503 22.9456 161.977 20.9988 163.087 19.1937C167.643 11.7809 182.093 8.8964 194.105 7.21556C220.378 3.53864 260.628 4.0986 276.023 20.0093C283.454 27.6883 274.433 32.7289 266.257 38.5227C258.74 43.8492 250.238 50.5114 245.938 56.9726C241.818 63.1634 241.755 70.7443 251.296 75.1821C259.368 78.9369 270.712 75.3434 274.897 70.7046C279.08 66.0659 278.188 60.5591 282.289 55.9403C286.371 51.3418 293.391 47.8774 297.724 43.3504C302.664 38.1878 304.475 32.168 308.637 26.7674C312.142 22.2198 317.45 15.6394 314.141 10.574C310.543 5.06589 295.114 6.64949 286.872 2.86953C276.744 -1.77564 267.106 -7.11504 255.407 -10.4384C230.167 -17.6077 196.261 -17.1972 169.959 -12.0845C156.197 -9.40898 145.8 -2.13113 131.55 -0.513075C113.347 1.55384 98.4186 -6.24114 81.9505 -4.54517C70.2707 -3.3425 65.1596 6.75607 73.1324 11.6801C88.7414 21.3198 111.371 7.73495 127.982 13.3268" stroke="white" stroke-width="12" stroke-miterlimit="1.5" stroke-linecap="round" stroke-linejoin="round"/>
<path d="M140.009 146.222C117.583 150.102 98.8564 155.183 92.1316 169.43C90.5234 172.838 89.7077 176.254 90.0366 179.792C90.9238 189.343 98.1271 203.263 72.4218 203.046C43.8091 202.806 51.4778 177.103 54.2921 166.663C55.2695 163.036 55.8211 158.646 59.3989 155.511C65.4819 150.178 77.891 148.654 83.4861 143.274C87.1811 139.72 82.7409 135.762 77.9647 133.547C52.1713 121.59 17.2843 138.978 15.5144 155.121C14.5156 164.239 23.557 174.114 16.7409 182.927C10.7008 190.735 -4.51993 189.906 -12.5692 183.702C-19.7857 178.14 -31.1325 170.915 -31.7278 164.222C-32.3772 156.929 -30.0998 150.515 -31.7278 143.274C-33.5473 135.184 -34.6977 121.014 -23.6742 115.794" stroke="white" stroke-width="12" stroke-miterlimit="1.5" stroke-linecap="round" stroke-linejoin="round"/>
</svg>
