<svg width="263" height="476" viewBox="0 0 263 476" fill="none" xmlns="http://www.w3.org/2000/svg">
<path d="M0 133.7L233.937 14.7747C247.242 8.01077 263 17.6773 263 32.6032V197.662C263 205.388 258.549 212.424 251.568 215.734L28.5677 321.456C15.2983 327.747 0 318.07 0 303.384V133.7Z" fill="#1E3A8A"/>
<path d="M0 134L253.122 261.984C259.18 265.047 263 271.258 263 278.047V446.265C263 459.624 248.96 468.328 236.995 462.388L9.9952 349.68C3.87234 346.64 0 340.394 0 333.558V134Z" fill="#1D4ED8"/>
<path d="M10 153L245.261 270.631C250.004 273.002 253 277.85 253 283.152V394L10 197V153Z" fill="#4B7CFF"/>
<path d="M0 134L14.5 126.5L234 224L205 237.5L0 134Z" fill="#003353"/>
</svg>
